<svg xmlns="http://www.w3.org/2000/svg" fill="none" viewBox="0 0 224 86">
  <path fill="#F2F2F3" stroke="#C9C9CF" stroke-dasharray="2 8" stroke-linecap="square" stroke-linejoin="round" stroke-width="2" d="M212.579 1.033a11 11 0 0 0-.865-.033h-1.998V0h-5.988v1h-3.999V0h-5.988v1h-3.997V0h-5.988v1h-3.997V0h-5.989v1h-3.998V0h-5.988v1h-3.997V0h-5.988v1h-3.997V0h-5.99v1h-3.997V0h-5.988v1h-3.997V0h-5.988v1h-3.998V0h-5.989v1h-3.997V0h-5.988v1h-3.997V0h-5.99v1h-3.996V0h-5.989v1h-3.997V0h-5.988v1h-3.997V0h-5.99v1H59.93V0h-5.99v1h-3.997V0h-5.988v1H39.96V0h-5.99v1h-3.996V0h-5.989v1h-3.997V0H14v1h-2q-.437 0-.865.033l-.997.078-.075-.955A11.9 11.9 0 0 0 4.995 2.26l.621.726-.76.65a11 11 0 0 0-1.221 1.221l-.65.76-.726-.62a11.9 11.9 0 0 0-2.103 5.067l.955.075-.078.997Q1 11.563 1 12v2.033H0V20.3h1v4.066H0v6.268h1V34.7H0v6.267h1v4.066H0V51.3h1v4.066H0v6.268h1V65.7H0v6.267h1V74l.009.435.024.43.078.997-.955.074a11.9 11.9 0 0 0 2.103 5.068l.726-.62.65.76q.42.493.898.934l.323.287.76.65-.62.725a11.9 11.9 0 0 0 5.067 2.103l.075-.954.997.078Q11.563 85 12 85h1.998v1h5.99v-1h3.996v1h5.989v-1h3.997v1h5.989v-1h3.997v1h5.988v-1h3.997v1h5.989v-1h3.997v1h5.989v-1h3.997v1h5.988v-1h3.997v1h5.989v-1h3.997v1h5.989v-1h3.997v1h5.988v-1h3.997v1h5.989v-1h3.998v1h5.988v-1h3.997v1h5.988v-1h3.997v1h5.99v-1h3.997v1h5.988v-1h3.997v1h5.988v-1h3.998v1h5.989v-1h3.997v1h5.988v-1h3.997v1h5.988v-1h3.998v1h5.989v-1h1.998q.437 0 .865-.033l.997-.078.074.954a11.9 11.9 0 0 0 5.068-2.103l-.62-.725.759-.65.324-.287q.476-.44.898-.934l.65-.76.725.62a11.94 11.94 0 0 0 2.104-5.069l-.954-.073.077-.997q.033-.428.033-.865v-2.033h1V65.7h-1v-4.066h1v-6.268h-1V51.3h1v-6.267h-1v-4.066h1V34.7h-1v-4.066h1v-6.268h-1V20.3h1v-6.267h-1V12q0-.437-.033-.865l-.077-.997.954-.075a11.94 11.94 0 0 0-2.104-5.068l-.725.621-.65-.76a11 11 0 0 0-1.222-1.221l-.759-.65.62-.726A11.94 11.94 0 0 0 213.65.156l-.074.955zm0 0 .076-.997h.001z"/>
  <path fill="#C9C9CF" d="M127.994 38.72a3.1 3.1 0 0 0-1.094-.961 3 3 0 0 0-1.402-.344h-3.071v-3.143a3.18 3.18 0 0 0-.9-2.222 3.04 3.04 0 0 0-2.171-.92h-13.309l-5.323-4.086a3.05 3.05 0 0 0-1.843-.629h-10.24c-.814 0-1.595.331-2.171.92a3.18 3.18 0 0 0-.9 2.223v28.286c0 .416.162.816.45 1.11s.679.461 1.086.461h34.38c.323 0 .637-.104.898-.297.262-.192.457-.465.559-.777l5.469-16.79a3.2 3.2 0 0 0-.418-2.833zm-29.113-9.162 5.732 4.4c.266.204.589.314.921.314h13.822v3.143h-25a3.03 3.03 0 0 0-1.796.593 3.14 3.14 0 0 0-1.118 1.556l-2.8 8.596V29.558H98.88z"/>
</svg>
